<svg id="组_4" data-name="组 4" xmlns="http://www.w3.org/2000/svg" width="482" height="482" viewBox="0 0 482 482">
  <circle fill="#666" cx="241" cy="241" r="148.938"/>
  <g>
    <path fill="#fff" fill-rule="evenodd" d="M157.89,218.775c-4.173,1.746-4.6.811-5.89,7.1,3.975,22.153,20.557,67.435,43.583,95.856s70.776,15.934,77.742,13.018,17.736-11.353,22.381-18.935,10.509-15.377,15.312-35.5,2.356-79.288,2.356-79.288-1.008-8.945-8.245-8.284-7.714,5.4-8.246,8.284-1.177,39.052-1.177,39.052,0.438,7.285-5.89,7.1-5.89-7.1-5.89-7.1l-2.355-74.554s1.489-11.485-8.246-11.834-9.423,9.467-9.423,9.467l-1.178,65.087s0.716,3.55-5.89,3.55-5.889-5.917-5.889-5.917l-1.178-74.554s-0.732-7.585-9.423-8.284-10.6,8.284-10.6,8.284v74.554s0.717,5.917-5.889,5.917-6.237-7.642-5.89-11.834-1.178-55.62-1.178-55.62-1.561-10.166-10.6-9.467-9.423,10.651-9.423,10.651l2.356,79.288s0.551,10.65-4.712,10.65-6.082.506-10.6-4.733-16.491-28.4-16.491-28.4S162.062,217.028,157.89,218.775Z"/>
  </g>
</svg>
