<svg xmlns="http://www.w3.org/2000/svg" width="430" height="430" viewBox="0 0 430 430">
  <path fill="none" stroke="#000" stroke-width="20px" fill-rule="evenodd" d="M214.943,15.052V416.583"/>
  <path fill="none" stroke="#000" stroke-width="20px" fill-rule="evenodd" d="M415.709,215.818H14.178"/>
  <path fill="none" stroke="#000" stroke-width="20px" fill-rule="evenodd" d="M215.352,14.235c55.327,0,100.179,89.7,100.179,200.357S270.679,414.948,215.352,414.948s-100.178-89.7-100.178-200.357S160.025,14.235,215.352,14.235Z"/>
  <path fill="none" stroke="#000" stroke-width="20px" fill-rule="evenodd" d="M369.734,85.773c-36.742,22.472-92.62,36.818-155.2,36.818-62.262,0-117.891-14.2-154.639-36.477"/>
  <path fill="none" stroke="#000" stroke-width="20px" fill-rule="evenodd" d="M61.9,342.69c36.75-21.587,91.494-35.281,152.635-35.281,63.357,0,119.844,14.7,156.559,37.658"/>
  <path fill="none" stroke="#000" stroke-width="20px" fill-rule="evenodd" d="M214.943,14.235c110.654,0,200.357,89.7,200.357,200.357S325.6,414.948,214.943,414.948,14.587,325.245,14.587,214.591,104.289,14.235,214.943,14.235Z"/>
</svg>
