<svg xmlns="http://www.w3.org/2000/svg" width="240" height="180" viewBox="0 0 240 180">
  <path  fill="#fff" stroke="#fff" stroke-linecap="square" stroke-width="1.6px" fill-rule="evenodd" d="M161.05,91.232c0.1,1.514,0,17.583,0,17.583h-3.466s-0.069-17.638,0-19.405c0.095-2.431,1.565-10.224,10.878-10.291v3.354C163.676,82.911,161.146,86.312,161.05,91.232ZM139.959,109.6c-5.01.142-8.718-2.126-10.378-5.154-1.958-3.573-1.66-8.2-1.66-11.179V79.178h3.737s0.079,12.267,0,16.274c-0.038,1.974.273,5.34,1.586,7.108a7.887,7.887,0,0,0,6.777,2.99c3.079-.122,5.221-1.442,6.319-3.242,1.026-1.682,1.106-4.878,1.144-6.813,0.079-4.007-.09-16.317-0.09-16.317h3.792V93.283c0.035,4.265.247,7.971-1.218,10.566A11.694,11.694,0,0,1,139.959,109.6ZM95.905,74.954a2.274,2.274,0,1,1,2.288-2.274A2.281,2.281,0,0,1,95.905,74.954Zm1.817,34.417H93.93V79.178h3.792v30.193Zm78.247-14.3c0.5,6.577,5.222,10.746,11.322,10.746,4.342,0,8.136-1.45,10.875-6.144l2.94,2.015a16.122,16.122,0,0,1-13.7,7.747c-8.848,0-15.334-6.532-15.334-14.809,0-8.77,6.646-15.512,15.879-15.512,8.739,0,15.059,5.816,15.059,15.683v0.274H175.969ZM187.4,82.677c-5.606,0-10.383,2.966-11.318,9.215h22.75C197.4,85.314,193.552,82.677,187.4,82.677ZM45.532,96.926c0.1-1.515,0-26.528,0-26.528h-3.5s-0.07,26.583,0,28.352c0.1,2.433,1.582,10.232,11,10.3v-3.357C48.186,105.254,45.628,101.85,45.532,96.926ZM61,95.071c0.495,6.577,5.221,10.746,11.322,10.746,4.342,0,8.136-1.45,10.875-6.144l2.94,2.015a16.124,16.124,0,0,1-13.705,7.747c-8.849,0-15.334-6.532-15.334-14.809,0-8.77,6.646-15.512,15.879-15.512,8.739,0,15.059,5.816,15.059,15.683v0.274H61ZM72.429,82.677c-5.606,0-10.383,2.966-11.318,9.215H83.861C82.432,85.314,78.585,82.677,72.429,82.677ZM116.17,93.571c6.032,3.405,5.523,7.658,5.515,8.479-0.045,4.614-3.519,7.5-8.209,7.452a9.757,9.757,0,0,1-7.86-4.394l2.643-2.609s2.239,3.382,5.472,3.269,4.326-1.117,4.35-3.534c0.1-4.756-6.442-6.885-6.442-6.885s-6.256-2.129-6.331-7.923a8.067,8.067,0,0,1,8.128-8.3c5.564-.183,8.169,3.048,8.169,3.048l-2.082,2.874a8.945,8.945,0,0,0-6.3-2.186c-2.5.185-4.251,1.349-4.307,4.34S114.324,92.774,116.17,93.571Z"/>
</svg>
