<svg id="图层_1" data-name="图层 1" xmlns="http://www.w3.org/2000/svg" viewBox="0 0 43.1 41.19412"><defs><style>.cls-1{fill:#5f6368;}</style></defs><path class="cls-1" d="M16.6,43.8l-3.1-5.3L7.3,37.25a1.46335,1.46335,0,0,1-.925-.6A1.30532,1.30532,0,0,1,6.1,35.6l.7-6L2.85,25a1.45,1.45,0,0,1,0-2L6.8,18.45l-.7-6a1.30532,1.30532,0,0,1,.275-1.05,1.46335,1.46335,0,0,1,.925-.6l6.2-1.25L16.6,4.2a1.60123,1.60123,0,0,1,.85-.7,1.40466,1.40466,0,0,1,1.1.05L24,6.1l5.45-2.55a1.51416,1.51416,0,0,1,1.95.6l3.15,5.4L40.7,10.8a1.46335,1.46335,0,0,1,.925.6,1.30532,1.30532,0,0,1,.275,1.05l-.7,6L45.15,23a1.45,1.45,0,0,1,0,2L41.2,29.6l.7,6a1.30532,1.30532,0,0,1-.275,1.05,1.46335,1.46335,0,0,1-.925.6L34.55,38.5,31.4,43.85a1.51416,1.51416,0,0,1-1.95.6L24,41.9l-5.45,2.55a1.4047,1.4047,0,0,1-1.1.05A1.60127,1.60127,0,0,1,16.6,43.8Z" transform="translate(-2.45 -3.40294)"/></svg>