<svg 
 xmlns="http://www.w3.org/2000/svg"
 xmlns:xlink="http://www.w3.org/1999/xlink"
 width="1065px" height="211px" class="maintitle">
<defs>
<linearGradient id="PSgrad_0" x1="0%" x2="100%" y1="0%" y2="0%">
  <stop offset="0%" stop-color="rgb(87,87,87)" stop-opacity="1" />
  <stop offset="100%" stop-color="rgb(245,245,245)" stop-opacity="1" />
</linearGradient>
</defs>
<path fill-rule="evenodd"  fill="rgb(245, 245, 245)"
 d="M1064.64,68.855 L1064.64,98.51 L1036.858,98.51 L1036.858,110.880 L1060.82,110.880 L1060.82,139.634 L1036.858,139.634 L1036.858,178.783 C1036.858,186.746 1035.787,192.828 1033.651,197.31 C1031.512,201.233 1027.935,204.181 1022.924,205.878 C1017.909,207.571 1010.683,208.421 1001.248,208.421 C995.349,208.421 987.977,208.52 979.130,207.316 L973.600,178.783 C974.630,178.932 977.322,179.263 981.673,179.778 C986.21,180.297 990.925,180.552 996.382,180.552 C1000.508,180.552 1003.239,179.744 1004.566,178.119 C1005.893,176.499 1006.556,173.329 1006.556,168.609 L1006.556,139.634 L958.339,139.634 C965.562,146.860 973.452,155.44 982.5,164.185 L960.550,185.861 C956.272,180.701 947.867,171.484 935.336,158.213 L931.575,154.232 L947.279,139.634 L928.37,139.634 L928.37,110.880 L1006.556,110.880 L1006.556,98.51 L923.392,98.51 L923.392,80.799 C919.556,87.141 915.353,93.407 910.784,99.600 L910.784,207.537 L882.31,207.537 L882.31,134.547 C876.867,140.152 871.193,145.682 865.0,151.135 L853.498,119.949 C861.163,113.462 869.976,104.210 879.929,92.190 C889.883,80.174 897.292,69.889 902.158,61.335 L923.392,74.606 L923.392,68.855 L976.918,68.855 L976.918,54.479 L935.778,54.479 L935.778,25.61 L976.918,25.61 L976.918,2.722 L1006.777,2.722 L1006.777,25.61 L1052.783,25.61 L1052.783,54.479 L1006.777,54.479 L1006.777,68.855 L1064.64,68.855 ZM871.414,80.136 L854.162,54.700 C864.39,46.150 873.919,36.784 883.800,26.610 C893.677,16.435 900.904,7.736 905.476,0.510 L929.142,18.205 C922.801,27.201 914.102,37.634 903.43,49.502 C891.984,61.373 881.440,71.586 871.414,80.136 ZM738.926,176.571 C740.989,176.277 743.52,172.2 745.119,163.743 C746.297,159.174 747.476,153.717 748.658,147.375 L750.427,139.191 L776.527,152.20 C773.430,165.733 770.776,175.984 768.564,182.764 C765.467,192.641 761.521,199.685 756.731,203.887 C751.937,208.90 746.76,210.191 739.147,210.191 C732.363,210.191 726.132,208.162 720.457,204.108 C714.779,200.51 709.211,193.602 703.758,184.755 C701.691,181.365 699.849,177.605 698.228,173.475 C685.987,181.880 672.865,189.915 658.858,197.584 L643.817,168.830 C660.772,160.867 675.667,152.390 688.496,143.394 C684.660,128.208 681.639,110.216 679.427,89.425 L639.836,89.425 L639.836,107.783 L669.32,101.590 L672.571,131.229 C663.426,133.589 652.516,136.22 639.836,138.528 L639.836,177.14 C639.836,184.682 638.654,190.689 636.297,195.40 C633.937,199.388 630.138,202.484 624.906,204.330 C619.670,206.172 612.554,207.94 603.562,207.94 C597.811,207.94 592.869,206.725 588.743,205.988 L582.771,177.14 C588.964,178.47 595.451,178.562 602.235,178.562 C607.101,178.268 609.534,174.802 609.534,168.166 L609.534,144.721 L576.356,151.135 L571.712,120.612 C578.641,119.582 591.248,117.294 609.534,113.755 L609.534,89.425 L574.366,89.425 L574.366,60.672 L609.534,60.672 L609.534,44.304 C603.635,45.189 594.272,46.222 581.444,47.401 L579.232,19.532 C607.986,17.26 636.0,12.454 663.281,5.818 L667.705,34.130 C658.709,36.196 649.419,38.111 639.836,39.880 L639.836,60.672 L676.773,60.672 L676.110,48.949 L675.446,32.803 L674.119,4.270 L704.200,4.270 C704.200,12.233 704.787,26.831 705.969,48.64 L706.633,60.672 L769.449,60.672 L769.449,89.425 L708.845,89.425 C710.317,103.878 711.793,115.159 713.268,123.266 C723.443,113.831 731.848,103.657 738.483,92.743 L763.34,108.447 C752.120,125.405 738.483,140.888 722.116,154.895 C724.179,160.59 726.833,164.997 730.78,169.715 C733.26,174.287 735.974,176.571 738.926,176.571 ZM710.172,23.71 L729.415,3.607 C739.589,12.160 751.975,23.883 766.573,38.775 L745.561,59.345 C733.762,46.222 721.967,34.130 710.172,23.71 ZM419.317,77.481 C431.112,86.477 443.758,96.652 457.250,108.5 C470.742,119.361 481.542,128.944 489.653,136.758 L466.429,163.521 C452.716,149.72 431.333,129.387 402.286,104.466 L402.286,208.421 L368.887,208.421 L368.887,106.678 C350.896,126.733 328.705,146.566 302.312,166.176 L282.405,136.758 C302.163,123.636 319.858,109.221 335.489,93.517 C351.117,77.813 364.167,61.705 374.638,45.189 L292.137,45.189 L292.137,13.117 L481.469,13.117 L481.469,45.189 L412.239,45.189 C409.143,51.237 405.825,56.988 402.286,62.441 L402.286,98.494 L419.317,77.481 ZM183.94,173.253 C183.94,181.956 181.988,188.702 179.776,193.492 C177.565,198.282 173.915,201.675 168.828,203.666 C163.741,205.657 156.552,206.797 147.263,207.94 C145.638,207.240 143.205,207.316 139.964,207.316 C132.443,207.316 124.702,206.873 116.740,205.988 L110.546,173.696 C120.572,175.23 129.198,175.686 136.425,175.686 C140.994,175.686 144.239,175.465 146.157,175.23 C148.71,174.581 149.326,173.623 149.917,172.148 C150.504,170.675 150.802,168.166 150.802,164.627 L150.802,71.731 L90.198,71.731 L90.198,39.880 L150.802,39.880 L150.802,3.828 L183.94,3.828 L183.94,39.880 L201.452,39.880 L201.452,71.731 L183.94,71.731 L183.94,173.253 ZM128.241,104.576 C134.876,114.678 140.551,123.930 145.272,132.335 L122.48,148.702 C117.33,139.561 111.172,129.608 104.464,118.843 C97.752,108.81 92.482,100.263 88.649,95.397 L111.431,80.357 C116.0,86.405 121.606,94.478 128.241,104.576 ZM0.840,14.887 L82.14,14.887 L82.14,194.266 L0.840,194.266 L0.840,14.887 ZM30.257,162.858 L53.260,162.858 L53.260,115.83 L30.257,115.83 L30.257,162.858 ZM30.257,85.223 L53.260,85.223 L53.260,46.958 L30.257,46.958 L30.257,85.223 Z"/>
<path fill="url(#PSgrad_0)"
 d="M1064.64,68.855 L1064.64,98.51 L1036.858,98.51 L1036.858,110.880 L1060.82,110.880 L1060.82,139.634 L1036.858,139.634 L1036.858,178.783 C1036.858,186.746 1035.787,192.828 1033.651,197.31 C1031.512,201.233 1027.935,204.181 1022.924,205.878 C1017.909,207.571 1010.683,208.421 1001.248,208.421 C995.349,208.421 987.977,208.52 979.130,207.316 L973.600,178.783 C974.630,178.932 977.322,179.263 981.673,179.778 C986.21,180.297 990.925,180.552 996.382,180.552 C1000.508,180.552 1003.239,179.744 1004.566,178.119 C1005.893,176.499 1006.556,173.329 1006.556,168.609 L1006.556,139.634 L958.339,139.634 C965.562,146.860 973.452,155.44 982.5,164.185 L960.550,185.861 C956.272,180.701 947.867,171.484 935.336,158.213 L931.575,154.232 L947.279,139.634 L928.37,139.634 L928.37,110.880 L1006.556,110.880 L1006.556,98.51 L923.392,98.51 L923.392,80.799 C919.556,87.141 915.353,93.407 910.784,99.600 L910.784,207.537 L882.31,207.537 L882.31,134.547 C876.867,140.152 871.193,145.682 865.0,151.135 L853.498,119.949 C861.163,113.462 869.976,104.210 879.929,92.190 C889.883,80.174 897.292,69.889 902.158,61.335 L923.392,74.606 L923.392,68.855 L976.918,68.855 L976.918,54.479 L935.778,54.479 L935.778,25.61 L976.918,25.61 L976.918,2.722 L1006.777,2.722 L1006.777,25.61 L1052.783,25.61 L1052.783,54.479 L1006.777,54.479 L1006.777,68.855 L1064.64,68.855 ZM871.414,80.136 L854.162,54.700 C864.39,46.150 873.919,36.784 883.800,26.610 C893.677,16.435 900.904,7.736 905.476,0.510 L929.142,18.205 C922.801,27.201 914.102,37.634 903.43,49.502 C891.984,61.373 881.440,71.586 871.414,80.136 ZM738.926,176.571 C740.989,176.277 743.52,172.2 745.119,163.743 C746.297,159.174 747.476,153.717 748.658,147.375 L750.427,139.191 L776.527,152.20 C773.430,165.733 770.776,175.984 768.564,182.764 C765.467,192.641 761.521,199.685 756.731,203.887 C751.937,208.90 746.76,210.191 739.147,210.191 C732.363,210.191 726.132,208.162 720.457,204.108 C714.779,200.51 709.211,193.602 703.758,184.755 C701.691,181.365 699.849,177.605 698.228,173.475 C685.987,181.880 672.865,189.915 658.858,197.584 L643.817,168.830 C660.772,160.867 675.667,152.390 688.496,143.394 C684.660,128.208 681.639,110.216 679.427,89.425 L639.836,89.425 L639.836,107.783 L669.32,101.590 L672.571,131.229 C663.426,133.589 652.516,136.22 639.836,138.528 L639.836,177.14 C639.836,184.682 638.654,190.689 636.297,195.40 C633.937,199.388 630.138,202.484 624.906,204.330 C619.670,206.172 612.554,207.94 603.562,207.94 C597.811,207.94 592.869,206.725 588.743,205.988 L582.771,177.14 C588.964,178.47 595.451,178.562 602.235,178.562 C607.101,178.268 609.534,174.802 609.534,168.166 L609.534,144.721 L576.356,151.135 L571.712,120.612 C578.641,119.582 591.248,117.294 609.534,113.755 L609.534,89.425 L574.366,89.425 L574.366,60.672 L609.534,60.672 L609.534,44.304 C603.635,45.189 594.272,46.222 581.444,47.401 L579.232,19.532 C607.986,17.26 636.0,12.454 663.281,5.818 L667.705,34.130 C658.709,36.196 649.419,38.111 639.836,39.880 L639.836,60.672 L676.773,60.672 L676.110,48.949 L675.446,32.803 L674.119,4.270 L704.200,4.270 C704.200,12.233 704.787,26.831 705.969,48.64 L706.633,60.672 L769.449,60.672 L769.449,89.425 L708.845,89.425 C710.317,103.878 711.793,115.159 713.268,123.266 C723.443,113.831 731.848,103.657 738.483,92.743 L763.34,108.447 C752.120,125.405 738.483,140.888 722.116,154.895 C724.179,160.59 726.833,164.997 730.78,169.715 C733.26,174.287 735.974,176.571 738.926,176.571 ZM710.172,23.71 L729.415,3.607 C739.589,12.160 751.975,23.883 766.573,38.775 L745.561,59.345 C733.762,46.222 721.967,34.130 710.172,23.71 ZM419.317,77.481 C431.112,86.477 443.758,96.652 457.250,108.5 C470.742,119.361 481.542,128.944 489.653,136.758 L466.429,163.521 C452.716,149.72 431.333,129.387 402.286,104.466 L402.286,208.421 L368.887,208.421 L368.887,106.678 C350.896,126.733 328.705,146.566 302.312,166.176 L282.405,136.758 C302.163,123.636 319.858,109.221 335.489,93.517 C351.117,77.813 364.167,61.705 374.638,45.189 L292.137,45.189 L292.137,13.117 L481.469,13.117 L481.469,45.189 L412.239,45.189 C409.143,51.237 405.825,56.988 402.286,62.441 L402.286,98.494 L419.317,77.481 ZM183.94,173.253 C183.94,181.956 181.988,188.702 179.776,193.492 C177.565,198.282 173.915,201.675 168.828,203.666 C163.741,205.657 156.552,206.797 147.263,207.94 C145.638,207.240 143.205,207.316 139.964,207.316 C132.443,207.316 124.702,206.873 116.740,205.988 L110.546,173.696 C120.572,175.23 129.198,175.686 136.425,175.686 C140.994,175.686 144.239,175.465 146.157,175.23 C148.71,174.581 149.326,173.623 149.917,172.148 C150.504,170.675 150.802,168.166 150.802,164.627 L150.802,71.731 L90.198,71.731 L90.198,39.880 L150.802,39.880 L150.802,3.828 L183.94,3.828 L183.94,39.880 L201.452,39.880 L201.452,71.731 L183.94,71.731 L183.94,173.253 ZM128.241,104.576 C134.876,114.678 140.551,123.930 145.272,132.335 L122.48,148.702 C117.33,139.561 111.172,129.608 104.464,118.843 C97.752,108.81 92.482,100.263 88.649,95.397 L111.431,80.357 C116.0,86.405 121.606,94.478 128.241,104.576 ZM0.840,14.887 L82.14,14.887 L82.14,194.266 L0.840,194.266 L0.840,14.887 ZM30.257,162.858 L53.260,162.858 L53.260,115.83 L30.257,115.83 L30.257,162.858 ZM30.257,85.223 L53.260,85.223 L53.260,46.958 L30.257,46.958 L30.257,85.223 Z"/>
</svg>