<svg xmlns="http://www.w3.org/2000/svg" width="863" height="166" viewBox="0 0 863 166">
  <path fill="#fff" stroke="#fff" stroke-width="2.4px" fill-rule="evenodd" d="M858.2,79.325v37.482c0.108,29.231-11.209,42.8-41.237,44.2-28.837-.654-39-25.037-39-25.037l8.82-5.957s9.843,18.912,30.745,18.984c28.836,0.075,30.4-21.129,30.4-37.02-0.076-2.427-.121-5.088-0.145-7.768a43.472,43.472,0,1,1,.185-56.575L848,32.974h10.2V72.305q0.138,1.737.141,3.51T858.2,79.325Zm-43.29-35.649a32.13,32.13,0,1,0,32.13,32.13A32.13,32.13,0,0,0,814.914,43.676ZM712.815,117.4a43.47,43.47,0,1,1,43.47-43.47A43.47,43.47,0,0,1,712.815,117.4Zm0.039-75.609a32.13,32.13,0,1,0,32.13,32.13A32.13,32.13,0,0,0,712.854,41.786ZM630.961,88.525c-0.2-5.117,0-82.023,0-82.023h10.115s0.277,72.363,0,76.746c0.277,14.245,7.661,24.092,21.625,25.361v9.711C635.527,118.125,631.238,95.563,630.961,88.525Zm-56.116,30.13a43.359,43.359,0,0,1-32.327-14.41v13.141h-12.01V5.911h12.01V46.125A43.469,43.469,0,1,1,574.845,118.655Zm0.039-75.609a32.13,32.13,0,1,0,32.13,32.13A32.13,32.13,0,0,0,574.884,43.046Zm-150.848,63.4c12.532,0,23.483-4.2,31.391-17.775l8.486,5.83s-12.163,22.411-39.56,22.411c-25.54,0-44.26-18.9-44.26-42.842,0-25.372,19.183-44.876,45.834-44.876,25.224,0,43.467,16.827,43.467,45.37V75.36H391.356C392.784,94.389,406.427,106.449,424.036,106.449Zm33.3-40.286c-4.125-19.029-15.229-26.658-33-26.658-16.181,0-29.971,8.581-32.667,26.658h65.664ZM348.294,64.255c0.274,4.379,0,50.866,0,50.866H338.287s-0.2-51.026,0-56.139c0.275-7.033,4.518-29.577,31.4-29.771v9.7C355.872,40.183,348.568,50.022,348.294,64.255Zm-60.879,53.127c-14.462.41-25.164-6.152-29.956-14.912-5.653-10.335-4.791-23.73-4.791-32.34V29.383h10.787s0.226,35.489,0,47.081c-0.111,5.71.786,15.446,4.578,20.562,3.907,5.27,10.839,9,19.56,8.651,8.886-.352,15.07-4.171,18.24-9.38,2.961-4.866,3.193-14.11,3.3-19.709,0.226-11.593-.262-47.2-0.262-47.2h10.947V70.189c0.1,12.338.713,23.059-3.515,30.568C309.946,112.051,298.189,117.077,287.415,117.382ZM234.669,95.55c-0.132,13.35-10.16,21.693-23.7,21.559A28.157,28.157,0,0,1,188.286,104.4l7.627-7.547s6.462,9.785,15.8,9.458,12.487-3.233,12.555-10.226c0.284-13.757-18.594-19.917-18.594-19.917s-18.056-6.16-18.273-22.921c0-13.35,9.924-24,23.461-24,16.06-.53,23.58,8.817,23.58,8.817l-6.01,8.313s-7.482-7.117-18.2-6.323c-7.221.535-12.271,3.9-12.432,12.556s15.624,16.108,20.952,18.414C236.159,80.872,234.692,93.177,234.669,95.55ZM160.255,17.162a6.579,6.579,0,1,1,6.605-6.579A6.592,6.592,0,0,1,160.255,17.162ZM92.188,106.449c12.532,0,23.483-4.2,31.391-17.775l8.486,5.83s-12.163,22.411-39.56,22.411c-25.541,0-44.26-18.9-44.26-42.842C48.245,48.7,67.428,29.2,94.08,29.2c25.224,0,43.467,16.827,43.467,45.37V75.36H59.508C60.936,94.389,74.579,106.449,92.188,106.449Zm33.3-40.286c-4.125-19.029-15.229-26.658-33-26.658-16.181,0-29.97,8.581-32.667,26.658H125.49ZM4.741,86c-0.2-5.117,0-82.023,0-82.023H14.856s0.278,72.363,0,76.746c0.278,14.245,7.661,24.092,21.625,25.361V115.8C9.307,115.605,5.018,93.043,4.741,86ZM165.5,116.73H154.555V29.383H165.5V116.73Z"/>
</svg>
